<svg xmlns="http://www.w3.org/2000/svg" viewBox="0 0 1150 23"><path fill="#E6E7E8" d="M960.5 19c-6.045 0-9.203-2.993-11.742-5.398-2.287-2.167-3.94-3.732-7.532-3.732s-5.245 1.565-7.532 3.732C931.155 16.007 927.997 19 921.952 19s-9.203-2.993-11.742-5.398c-2.287-2.167-3.94-3.732-7.532-3.732s-5.244 1.565-7.532 3.732C892.608 16.007 889.45 19 883.405 19s-9.204-2.993-11.743-5.398c-2.287-2.167-3.94-3.732-7.532-3.732s-5.245 1.565-7.532 3.732C854.059 16.007 850.9 19 844.856 19s-9.204-2.993-11.742-5.398c-2.287-2.167-3.94-3.732-7.532-3.732s-5.244 1.565-7.532 3.732C815.512 16.007 812.353 19 806.308 19s-9.204-2.993-11.743-5.398c-2.287-2.167-3.94-3.732-7.531-3.732s-5.245 1.565-7.532 3.732C776.963 16.007 773.804 19 767.759 19s-9.204-2.993-11.742-5.398c-2.288-2.167-3.94-3.732-7.533-3.732-3.59 0-5.243 1.565-7.53 3.732-2.537 2.405-5.696 5.398-11.74 5.398-6.045 0-9.204-2.993-11.743-5.398-2.287-2.167-3.94-3.732-7.532-3.732-3.591 0-5.244 1.565-7.53 3.732C699.87 16.007 696.711 19 690.667 19c-6.045 0-9.204-2.993-11.742-5.398-2.287-2.167-3.94-3.732-7.531-3.732s-5.244 1.565-7.532 3.732C661.326 16.007 658.167 19 652.122 19s-9.203-2.993-11.74-5.398c-2.288-2.167-3.94-3.732-7.532-3.732s-5.244 1.565-7.532 3.732C622.78 16.007 619.62 19 613.576 19s-9.204-2.993-11.742-5.397c-2.288-2.168-3.94-3.733-7.533-3.733-3.592 0-5.245 1.565-7.532 3.732C584.23 16.007 581.072 19 575.027 19c-6.045 0-9.204-2.993-11.742-5.398-2.287-2.167-3.94-3.732-7.532-3.732s-5.245 1.565-7.532 3.732C545.683 16.007 542.524 19 536.48 19c-6.045 0-9.204-2.993-11.742-5.398-2.288-2.167-3.94-3.732-7.532-3.732-3.593 0-5.245 1.565-7.533 3.732-2.538 2.405-5.697 5.398-11.742 5.398-6.046 0-9.205-2.993-11.743-5.397-2.288-2.168-3.94-3.733-7.534-3.733-3.592 0-5.245 1.565-7.532 3.732-2.539 2.405-5.698 5.398-11.743 5.398s-9.204-2.993-11.743-5.398c-2.287-2.167-3.94-3.732-7.533-3.732-3.592 0-5.245 1.565-7.532 3.732-2.539 2.405-5.698 5.398-11.743 5.398s-9.205-2.993-11.743-5.398c-2.288-2.167-3.94-3.732-7.533-3.732s-5.245 1.565-7.533 3.732C391.481 16.007 388.322 19 382.276 19s-9.205-2.993-11.743-5.398c-2.288-2.167-3.941-3.732-7.534-3.732-3.592 0-5.244 1.565-7.531 3.732C352.93 16.007 349.77 19 343.726 19c-6.045 0-9.204-2.993-11.742-5.398-2.288-2.167-3.94-3.732-7.533-3.732-3.592 0-5.245 1.565-7.533 3.732C314.38 16.007 311.221 19 305.176 19c-6.046 0-9.206-2.993-11.744-5.397-2.288-2.168-3.94-3.733-7.534-3.733s-5.246 1.565-7.534 3.733C275.825 16.007 272.665 19 266.62 19c-6.046 0-9.206-2.993-11.744-5.397-2.289-2.168-3.942-3.733-7.535-3.733-3.594 0-5.247 1.565-7.535 3.733-2.539 2.404-5.698 5.397-11.744 5.397-6.046 0-9.206-2.992-11.745-5.397-2.288-2.168-3.942-3.733-7.536-3.733-3.594 0-5.247 1.565-7.536 3.733C198.706 16.007 195.546 19 189.5 19v-5.87c3.594 0 5.248-1.565 7.536-3.733C199.576 6.992 202.735 4 208.781 4c6.047 0 9.206 2.992 11.745 5.397 2.289 2.168 3.942 3.733 7.536 3.733 3.594 0 5.246-1.565 7.535-3.733C238.135 6.993 241.295 4 247.34 4c6.046 0 9.205 2.993 11.744 5.397 2.288 2.168 3.941 3.733 7.535 3.733 3.593 0 5.246-1.565 7.534-3.733C276.693 6.993 279.852 4 285.898 4s9.205 2.993 11.744 5.397c2.287 2.168 3.94 3.733 7.534 3.733 3.592 0 5.245-1.565 7.532-3.732C315.247 6.993 318.406 4 324.451 4s9.204 2.993 11.743 5.398c2.287 2.167 3.94 3.732 7.532 3.732s5.244-1.565 7.532-3.732C353.796 6.993 356.954 4 362.999 4c6.046 0 9.205 2.993 11.744 5.398 2.287 2.167 3.94 3.732 7.533 3.732 3.593 0 5.246-1.565 7.533-3.732C392.348 6.993 395.507 4 401.552 4c6.046 0 9.205 2.993 11.743 5.398 2.288 2.167 3.94 3.732 7.533 3.732 3.593 0 5.245-1.565 7.533-3.732C430.899 6.993 434.058 4 440.103 4c6.046 0 9.205 2.993 11.743 5.398 2.288 2.167 3.94 3.732 7.533 3.732 3.593 0 5.245-1.565 7.533-3.732C469.45 6.993 472.609 4 478.654 4c6.046 0 9.205 2.993 11.744 5.398 2.287 2.167 3.94 3.732 7.533 3.732 3.592 0 5.245-1.565 7.532-3.732C508.002 6.993 511.161 4 517.206 4c6.044 0 9.203 2.993 11.742 5.398 2.287 2.167 3.94 3.732 7.532 3.732s5.244-1.565 7.531-3.732C546.55 6.993 549.708 4 555.753 4c6.045 0 9.204 2.993 11.742 5.398 2.287 2.167 3.94 3.732 7.532 3.732s5.244-1.565 7.532-3.732C585.097 6.993 588.255 4 594.3 4c6.045 0 9.204 2.993 11.743 5.398 2.287 2.167 3.94 3.732 7.532 3.732s5.244-1.565 7.532-3.732C623.646 6.993 626.805 4 632.85 4s9.203 2.993 11.741 5.398c2.287 2.167 3.94 3.732 7.53 3.732 3.592 0 5.245-1.565 7.533-3.732C662.19 6.993 665.35 4 671.394 4s9.204 2.993 11.742 5.398c2.287 2.167 3.94 3.732 7.532 3.732 3.59 0 5.243-1.565 7.53-3.732C700.736 6.993 703.894 4 709.938 4c6.046 0 9.205 2.993 11.743 5.398 2.288 2.167 3.94 3.732 7.533 3.732 3.59 0 5.243-1.565 7.53-3.732C739.282 6.993 742.44 4 748.484 4c6.045 0 9.204 2.993 11.743 5.398 2.287 2.167 3.94 3.732 7.532 3.732s5.245-1.565 7.533-3.732C777.83 6.993 780.989 4 787.034 4c6.045 0 9.203 2.993 11.741 5.398 2.288 2.167 3.94 3.732 7.533 3.732 3.592 0 5.245-1.565 7.532-3.732C816.38 6.993 819.537 4 825.582 4s9.204 2.993 11.742 5.398c2.288 2.167 3.94 3.732 7.532 3.732s5.244-1.565 7.532-3.732C854.926 6.993 858.085 4 864.13 4c6.045 0 9.204 2.993 11.742 5.398 2.288 2.167 3.94 3.732 7.533 3.732 3.591 0 5.244-1.565 7.531-3.732C893.475 6.993 896.633 4 902.678 4s9.204 2.993 11.742 5.398c2.288 2.167 3.94 3.732 7.532 3.732s5.244-1.565 7.532-3.732C932.022 6.993 935.18 4 941.226 4s9.204 2.993 11.742 5.398c2.288 2.167 3.94 3.732 7.532 3.732V19z"/></svg>
