<svg width="772" height="15" xmlns="http://www.w3.org/2000/svg"><path d="M771.5 15c-6.045 0-9.203-2.993-11.742-5.398-2.287-2.167-3.94-3.732-7.532-3.732s-5.245 1.565-7.532 3.732C742.155 12.007 738.997 15 732.952 15c-6.045 0-9.203-2.993-11.742-5.398-2.287-2.167-3.94-3.732-7.532-3.732s-5.244 1.565-7.532 3.732C703.608 12.007 700.45 15 694.405 15s-9.204-2.993-11.743-5.398c-2.287-2.167-3.94-3.732-7.532-3.732s-5.245 1.565-7.532 3.732C665.059 12.007 661.9 15 655.856 15c-6.044 0-9.204-2.993-11.742-5.398-2.287-2.167-3.94-3.732-7.532-3.732s-5.244 1.565-7.532 3.732C626.512 12.007 623.353 15 617.308 15c-6.045 0-9.204-2.993-11.743-5.398-2.287-2.167-3.94-3.732-7.531-3.732-3.591 0-5.245 1.565-7.532 3.732-2.539 2.405-5.698 5.398-11.743 5.398s-9.204-2.993-11.742-5.398c-2.288-2.167-3.94-3.732-7.533-3.732-3.59 0-5.243 1.565-7.53 3.732-2.537 2.405-5.696 5.398-11.74 5.398-6.045 0-9.204-2.993-11.743-5.398-2.287-2.167-3.94-3.732-7.532-3.732-3.591 0-5.244 1.565-7.53 3.732C510.87 12.007 507.711 15 501.667 15c-6.045 0-9.204-2.993-11.742-5.398-2.287-2.167-3.94-3.732-7.531-3.732-3.591 0-5.244 1.565-7.532 3.732-2.536 2.405-5.695 5.398-11.74 5.398s-9.203-2.993-11.74-5.398c-2.288-2.167-3.94-3.732-7.532-3.732s-5.244 1.565-7.532 3.732C433.78 12.007 430.62 15 424.576 15c-6.044 0-9.204-2.993-11.742-5.397-2.288-2.168-3.94-3.733-7.533-3.733-3.592 0-5.245 1.565-7.532 3.732C395.23 12.007 392.072 15 386.027 15c-6.045 0-9.204-2.993-11.742-5.398-2.287-2.167-3.94-3.732-7.532-3.732s-5.245 1.565-7.532 3.732C356.683 12.007 353.524 15 347.48 15c-6.045 0-9.204-2.993-11.742-5.398-2.288-2.167-3.94-3.732-7.532-3.732-3.593 0-5.245 1.565-7.533 3.732-2.538 2.405-5.697 5.398-11.742 5.398-6.046 0-9.205-2.993-11.743-5.397-2.288-2.168-3.94-3.733-7.534-3.733-3.592 0-5.245 1.565-7.532 3.732-2.539 2.405-5.698 5.398-11.743 5.398s-9.204-2.993-11.743-5.398c-2.287-2.167-3.94-3.732-7.533-3.732-3.592 0-5.245 1.565-7.532 3.732-2.539 2.405-5.698 5.398-11.743 5.398s-9.205-2.993-11.743-5.398c-2.288-2.167-3.94-3.732-7.533-3.732-3.593 0-5.245 1.565-7.533 3.732-2.538 2.405-5.697 5.398-11.743 5.398s-9.205-2.993-11.743-5.398c-2.288-2.167-3.941-3.732-7.534-3.732-3.592 0-5.244 1.565-7.531 3.732C163.93 12.007 160.77 15 154.726 15c-6.045 0-9.204-2.993-11.742-5.398-2.288-2.167-3.94-3.732-7.533-3.732-3.592 0-5.245 1.565-7.533 3.732C125.38 12.007 122.221 15 116.176 15c-6.046 0-9.206-2.993-11.744-5.397-2.288-2.168-3.94-3.733-7.534-3.733s-5.246 1.565-7.534 3.733C86.825 12.007 83.665 15 77.62 15c-6.046 0-9.206-2.993-11.744-5.397-2.289-2.168-3.942-3.733-7.535-3.733-3.594 0-5.247 1.565-7.535 3.733C48.267 12.007 45.108 15 39.062 15c-6.046 0-9.206-2.992-11.745-5.397-2.288-2.168-3.942-3.733-7.536-3.733-3.594 0-5.247 1.565-7.536 3.733C9.706 12.007 6.546 15 .5 15V9.13c3.594 0 5.248-1.565 7.536-3.733C10.576 2.992 13.735 0 19.781 0c6.047 0 9.206 2.992 11.745 5.397 2.289 2.168 3.942 3.733 7.536 3.733 3.594 0 5.246-1.565 7.535-3.733C49.135 2.993 52.295 0 58.34 0c6.046 0 9.205 2.993 11.744 5.397 2.288 2.168 3.941 3.733 7.535 3.733 3.593 0 5.246-1.565 7.534-3.733C87.693 2.993 90.852 0 96.898 0c6.046 0 9.205 2.993 11.744 5.397 2.287 2.168 3.94 3.733 7.534 3.733 3.592 0 5.245-1.565 7.532-3.732C126.247 2.993 129.406 0 135.451 0s9.204 2.993 11.743 5.398c2.287 2.167 3.94 3.732 7.532 3.732s5.244-1.565 7.532-3.732C164.796 2.993 167.954 0 173.999 0c6.046 0 9.205 2.993 11.744 5.398 2.287 2.167 3.94 3.732 7.533 3.732 3.593 0 5.246-1.565 7.533-3.732C203.348 2.993 206.507 0 212.552 0c6.046 0 9.205 2.993 11.743 5.398 2.288 2.167 3.94 3.732 7.533 3.732 3.593 0 5.245-1.565 7.533-3.732C241.899 2.993 245.058 0 251.103 0c6.046 0 9.205 2.993 11.743 5.398 2.288 2.167 3.94 3.732 7.533 3.732 3.593 0 5.245-1.565 7.533-3.732C280.45 2.993 283.609 0 289.654 0c6.046 0 9.205 2.993 11.744 5.398 2.287 2.167 3.94 3.732 7.533 3.732 3.592 0 5.245-1.565 7.532-3.732C319.002 2.993 322.161 0 328.206 0c6.044 0 9.203 2.993 11.742 5.398 2.287 2.167 3.94 3.732 7.532 3.732s5.244-1.565 7.531-3.732C357.55 2.993 360.708 0 366.753 0c6.045 0 9.204 2.993 11.742 5.398 2.287 2.167 3.94 3.732 7.532 3.732s5.244-1.565 7.532-3.732C396.097 2.993 399.255 0 405.3 0s9.204 2.993 11.743 5.398c2.287 2.167 3.94 3.732 7.532 3.732s5.244-1.565 7.532-3.732C434.646 2.993 437.805 0 443.85 0s9.203 2.993 11.741 5.398c2.287 2.167 3.94 3.732 7.53 3.732 3.592 0 5.245-1.565 7.533-3.732C473.19 2.993 476.35 0 482.394 0c6.044 0 9.204 2.993 11.742 5.398 2.287 2.167 3.94 3.732 7.532 3.732 3.59 0 5.243-1.565 7.53-3.732C511.736 2.993 514.894 0 520.938 0c6.046 0 9.205 2.993 11.743 5.398 2.288 2.167 3.94 3.732 7.533 3.732 3.59 0 5.243-1.565 7.53-3.732C550.282 2.993 553.44 0 559.484 0c6.045 0 9.204 2.993 11.743 5.398 2.287 2.167 3.94 3.732 7.532 3.732s5.245-1.565 7.533-3.732C588.83 2.993 591.989 0 598.034 0c6.045 0 9.203 2.993 11.741 5.398 2.288 2.167 3.94 3.732 7.533 3.732 3.592 0 5.245-1.565 7.532-3.732C627.38 2.993 630.537 0 636.582 0c6.045 0 9.204 2.993 11.742 5.398 2.288 2.167 3.94 3.732 7.532 3.732s5.244-1.565 7.532-3.732C665.926 2.993 669.085 0 675.13 0c6.045 0 9.204 2.993 11.742 5.398 2.288 2.167 3.94 3.732 7.533 3.732 3.591 0 5.244-1.565 7.531-3.732C704.475 2.993 707.633 0 713.678 0c6.045 0 9.204 2.993 11.742 5.398 2.288 2.167 3.94 3.732 7.532 3.732s5.244-1.565 7.532-3.732C743.022 2.993 746.18 0 752.226 0c6.046 0 9.204 2.993 11.742 5.398 2.288 2.167 3.94 3.732 7.532 3.732V15z" fill="#E6E7E8" fill-rule="nonzero"/></svg>
