<?xml version="1.0" encoding="utf-8"?>
<!-- Generator: Adobe Illustrator 21.1.0, SVG Export Plug-In . SVG Version: 6.00 Build 0)  -->
<svg version="1.1" id="Layer_1" xmlns="http://www.w3.org/2000/svg" xmlns:xlink="http://www.w3.org/1999/xlink" x="0px" y="0px"
	 viewBox="0 0 60 59.6199989" style="enable-background:new 0 0 60 59.6199989;" xml:space="preserve">
<style type="text/css">
	.st0{fill:#149080;}
</style>
<path class="st0" d="M0,43.6809692l27.4380035,15.9339905V36.2689514L0,20.3289509V43.6809692z M51.3459778,12.4369669v2.4530029
	c0,1.8170023-3.4580078,3.2899942-7.730011,3.2899942c-4.2659912,0-7.7269897-1.4730072-7.7269897-3.2899942v-4.0590057h0.0239868
	c0.2600098,1.7140045,3.6040039,3.072998,7.7019958,3.072998c4.2720032,0,7.7290039-1.473999,7.7290039-3.2850037
	c0-1.8190002-3.4570007-3.289001-7.7290039-3.289001c-0.3389893,0-0.6749878,0.0099945-1.0020142,0.0299988l-4.9750061-2.8880005
	v3.0859985c0,1.8170009-3.45401,3.2899928-7.7230072,3.2899928c-2.6829987,0-5.0449982-0.5829926-6.4329987-1.4669952
	c-0.1959991-0.2030029-0.4389954-0.401001-0.7319946-0.5859985c-0.3630066-0.3809967-0.5650024-0.7969966-0.5650024-1.235992
	V4.572969l-4.8070068,2.7920074c-0.3470001-0.0169983-0.6959991-0.0330048-1.0540009-0.0330048
	c-4.2669983,0-7.727005,1.4689937-7.727005,3.289001c0,1.8110046,3.4600067,3.2850037,7.727005,3.2850037
	c4.098999,0,7.4459991-1.3580017,7.7050018-3.072998h0.0220032v4.0590057c0,1.8170023-3.4550018,3.2899942-7.727005,3.2899942
	c-4.2669983,0-7.727005-1.4730072-7.727005-3.2899942v-2.4199982L2.644928,15.9239817l27.5310059,15.9859934L57.526947,16.0279713
	L51.3459778,12.4369669z M37.7019958,22.6029682c0,1.8170013-3.4599915,3.2870026-7.727005,3.2870026
	c-4.2689972,0-7.7290039-1.4700012-7.7290039-3.2870026v-4.0590057h0.0240021
	c0.2599945,1.7149963,3.6029968,3.076004,7.7050018,3.076004c4.1009979,0,7.4430084-1.3609924,7.7050018-3.076004h0.0209961
	v4.0590057H37.7019958z M32.5570068,36.4759521v23.1440125l27.4419861-15.9389954V20.536974L32.5570068,36.4759521z
	 M29.9160004,6.5719619c4.2689972,0,7.7230072-1.4700012,7.7230072-3.2859957c0-1.8139954-3.45401-3.2870026-7.7230072-3.2870026
	c-4.2700043,0-7.7290039,1.4720001-7.7290039,3.2870026C22.1859894,5.1019759,25.6459961,6.5719619,29.9160004,6.5719619"/>
</svg>
