<?xml version="1.0" encoding="utf-8"?>
<!-- Generator: Adobe Illustrator 21.1.0, SVG Export Plug-In . SVG Version: 6.00 Build 0)  -->
<svg version="1.1" id="svg4488" xmlns="http://www.w3.org/2000/svg" xmlns:xlink="http://www.w3.org/1999/xlink" x="0px" y="0px"
	 viewBox="0 0 40.2190018 62.4109993" style="enable-background:new 0 0 40.2190018 62.4109993;" xml:space="preserve">
<style type="text/css">
	.st0{fill:#149080;}
</style>
<g>
	<path class="st0" d="M15.1769867,37.9579811c-0.2859955,0.9659996-0.2449951,2.1910019,0.0269928,3.6389999
		c0.4940033,2.6350021,1.6869965,6.0410004,2.3580017,9.670002h5.0619965
		c0.6959991-3.6410027,1.9490051-7.0500031,2.470993-9.6830025c0.2870026-1.4449997,0.3300018-2.6599998,0.0410004-3.6170006
		c-0.2749939-0.8989983-0.8899994-1.618-2.0209961-2.3029976h-5.996994
		C16.0429993,36.3429794,15.443985,37.0549812,15.1769867,37.9579811z"/>
	<path class="st0" d="M27.0089874,57.95298h-13.798996c-1.2929993,0-2.298996,0.9760017-2.298996,2.2290001v2.2290001h2.298996
		h13.798996h2.298996v-2.2290001C29.3079987,58.9289818,28.3019867,57.95298,27.0089874,57.95298z"/>
	<path class="st0" d="M34.1419983,2.2289822H22.4100037c0-1.2439995-1.0149994-2.2290001-2.3000031-2.2290001
		c-1.2830048,0-2.3000031,0.9850006-2.3000031,2.2290001H6.072998L0,27.7459831
		c0.7940063-0.4610004,1.5889893-0.9920006,2.6319885-0.9920006c1.3589935,0,2.2429962,0.8179989,2.923996,1.375
		c0.6820068,0.5569992,1.1620026,0.848999,1.4470062,0.848999c0.2920074,0.0010014,0.7689972-0.2869987,1.451004-0.8360004
		c0.6809998-0.5480003,1.5639954-1.3579998,2.9149933-1.3579998c1.348999,0,2.2369995,0.8059998,2.9190063,1.3540001
		c0.6840057,0.5489998,1.1609955,0.8400002,1.451004,0.8400002c0.1459961,0,0.3379974-0.073,0.5800018-0.2139988
		c0.2420044-0.1410007,0.5299988-0.3530006,0.871994-0.6260014c0.5119934-0.4109993,1.1390076-0.9669991,1.9900055-1.2180004
		c0.2839966-0.0849991,0.5930023-0.1359997,0.9299927-0.1359997c1.3470001,0,2.2380066,0.8050003,2.9199982,1.3540001
		c0.6829987,0.5480003,1.1589966,0.8400002,1.451004,0.8400002c0.2870026-0.0019989,0.7660065-0.2959995,1.4450073-0.8500004
		c0.6840057-0.5539989,1.5709991-1.3670006,2.9250031-1.3670006c1.3560028,0,2.2389984,0.8170013,2.9190063,1.3710003
		c0.3419952,0.276001,0.6309967,0.4890003,0.871994,0.6310005c0.2400055,0.1429996,0.4309998,0.2139988,0.5749969,0.2139988
		c0.2879944,0,0.7619934-0.2929993,1.4420013-0.8540001c0.6799927-0.559,1.5670013-1.3839989,2.9290009-1.3839989
		c1.0440063,0,1.8390045,0.532999,2.6320038,0.9969997L34.1419983,2.2289822z"/>
	<path class="st0" d="M23.522995,53.4949799h-6.8639984c-0.6569977,0-1.1499939,0.4790001-1.1499939,1.1150017
		c0,0.6349983,0.4929962,1.112999,1.1499939,1.112999h6.8999939c0.6549988,0,1.1499939-0.4790001,1.1499939-1.112999
		c0-0.6360016-0.4949951-1.1150017-1.1499939-1.1150017H23.522995z"/>
	<path class="st0" d="M20.1089935,29.0109825c-0.1459961,0-0.3379974,0.0739994-0.5800018,0.2129993
		c-0.1569977,0.0939999-0.3699951,0.2609997-0.5700073,0.4099998v3.7310009h2.298996v-3.7310009
		C20.7529907,29.2559814,20.3499908,29.0109825,20.1089935,29.0109825z"/>
</g>
</svg>
