<?xml version="1.0" encoding="utf-8"?>
<!-- Generator: Adobe Illustrator 21.1.0, SVG Export Plug-In . SVG Version: 6.00 Build 0)  -->
<svg version="1.1" id="Layer_1" xmlns="http://www.w3.org/2000/svg" xmlns:xlink="http://www.w3.org/1999/xlink" x="0px" y="0px"
	 viewBox="0 0 31.9720001 37.3009987" style="enable-background:new 0 0 31.9720001 37.3009987;" xml:space="preserve">
<style type="text/css">
	.st0{fill:#63D1BB;}
</style>
<path class="st0" d="M15.9860001,37.2999496c8.8269997,0,15.9860001-7.1590023,15.9860001-15.986002
	C23.144001,21.3139458,15.9860001,28.4719448,15.9860001,37.2999496z M4.6269999,16.4299469
	c0,2.4510002,1.9890003,4.441,4.4399996,4.441c0.9319992,0,1.8029995-0.2940006,2.5130005-0.7819996l-0.0359993,0.3369999
	c0,2.4510002,1.9899998,4.441,4.441,4.441s4.4400005-1.9899998,4.4400005-4.441l-0.0359993-0.3369999
	c0.7189999,0.4969997,1.5820007,0.7819996,2.5139999,0.7819996c2.4509983,0,4.4400005-1.9899998,4.4400005-4.441
	c0-1.7679996-1.0379982-3.2859993-2.5400009-3.9969997c1.4920006-0.7099991,2.5400009-2.2290001,2.5400009-3.9969997
	c0-2.4509997-1.9889984-4.4400005-4.4400005-4.4400005c-0.9319992,0-1.8029995,0.2930005-2.5139999,0.7810004l0.0369987-0.3370008
	c0-2.4510005-1.9890003-4.4400001-4.4400005-4.4400001s-4.441,1.9900002-4.441,4.4400001l0.0359993,0.3369999
	C10.8619995,4.2799468,10,3.9959462,9.0679989,3.9959462c-2.4510002,0-4.4400005,1.99-4.4400005,4.4399996
	c0,1.7679996,1.0389996,3.2859993,2.54,3.9969997C5.6660004,13.1439457,4.6269999,14.6619453,4.6269999,16.4299469z
	 M15.9860001,7.9929471c2.4510002,0,4.4400005,1.9889998,4.4400005,4.4400001s-1.9890003,4.4400005-4.4400005,4.4400005
	s-4.441-1.9899998-4.441-4.4400005C11.5450001,9.981946,13.5349998,7.9929471,15.9860001,7.9929471z M0,21.3139458
	c0,8.8269978,7.158,15.9860039,15.9860001,15.9860039C15.9860001,28.4719448,8.8279991,21.3139458,0,21.3139458z"/>
</svg>
