<?xml version="1.0" encoding="utf-8"?>
<!-- Generator: Adobe Illustrator 21.1.0, SVG Export Plug-In . SVG Version: 6.00 Build 0)  -->
<svg version="1.1" id="Layer_1" xmlns="http://www.w3.org/2000/svg" xmlns:xlink="http://www.w3.org/1999/xlink" x="0px" y="0px"
	 viewBox="0 0 34.3730011 34.3730011" style="enable-background:new 0 0 34.3730011 34.3730011;" xml:space="preserve">
<style type="text/css">
	.st0{fill:#63D1BB;}
</style>
<g>
	<path class="st0" d="M0.286,14.0689707c-0.382,2.0730009-0.384,4.2110014,0.008,6.3010015L4.415,17.1599712L0.286,14.0689707z"/>
	<path class="st0" d="M24.4029999,1.5849707c-4.782999-2.2080002-10.4440002-2.1440001-15.2539997,0.4069999l7.5130005,5.6250005
		L24.4029999,1.5849707z"/>
	<path class="st0" d="M33.901001,13.1749706l-4.8110008,3.7480011l4.9360008,3.6949997
		C34.5219994,18.1729717,34.4889984,15.6299706,33.901001,13.1749706z"/>
	<path class="st0" d="M9.2089996,32.4139709c4.8439999,2.5340004,10.723999,2.6500015,15.7299995,0.112999l-8.0960007-6.0619984
		L9.2089996,32.4139709z"/>
	<path class="st0" d="M7.914,14.43297L1.681,9.7669706c-0.3199999,0.6689997-0.595,1.3559999-0.825,2.0559998l5.3080001,3.974
		L7.914,14.43297z"/>
	<path class="st0" d="M18.5930004,25.1019707l8.3360004,6.2420006c0.2770004-0.191,0.5510006-0.3910007,0.8199997-0.6009998
		c0.3180008-0.2479992,0.625-0.5049992,0.9200001-0.7709999l-8.3260002-6.2340012L18.5930004,25.1019707z"/>
	<path class="st0" d="M11.4130001,11.7069702L4.0019999,6.1579709C3.54,6.708971,3.1170001,7.2849708,2.733,7.880971
		l6.9310007,5.1889992L11.4130001,11.7069702z"/>
	<path class="st0" d="M22.0930004,22.3749714l8.092001,6.059c0.4710007-0.5440006,0.9039993-1.1119995,1.2970009-1.7010002
		l-7.6389999-5.7210007L22.0930004,22.3749714z"/>
	<path class="st0" d="M14.9130001,8.97997l-7.717-5.7769995c-0.1930003,0.138-0.3840003,0.279-0.573,0.4259999
		C6.2270002,3.9379706,5.849,4.2609711,5.487,4.596971l7.6760001,5.7469993L14.9130001,8.97997z"/>
	<path class="st0" d="M25.5919991,19.6489716l6.9720001,5.2210007c0.3300018-0.6620007,0.6150017-1.3409996,0.8549995-2.032999
		l-6.0769997-4.5499992L25.5919991,19.6489716z"/>
	<path class="st0" d="M26.448,2.7059708L0.88,22.6259708c0.233,0.698,0.513,1.3859997,0.839,2.059L28.2390003,4.0219703
		C27.6669998,3.5409706,27.0680008,3.1019707,26.448,2.7059708z"/>
	<path class="st0" d="M30.743,6.623971c-0.3010006-0.3860002-0.6140003-0.7540002-0.9389992-1.1059999L2.786,26.5669708
		c0.2620001,0.4020004,0.5420001,0.7970009,0.8429999,1.1830006c0.142,0.1830006,0.2879999,0.3589993,0.4360001,0.5340004
		L31.1550007,7.175971C31.0209999,6.9899707,30.8859997,6.8059711,30.743,6.623971z"/>
	<path class="st0" d="M32.2980003,8.99897L5.552,29.8379707c0.5440001,0.5009995,1.1139998,0.9619999,1.7080002,1.382
		l25.9619999-20.2280006C32.9589996,10.3139706,32.651001,9.6479702,32.2980003,8.99897z"/>
</g>
</svg>
