<svg xmlns="http://www.w3.org/2000/svg" viewBox="0 0 31.972 37.301"><path d="M15.986 37.3c8.827 0 15.986-7.16 15.986-15.986-8.828 0-15.986 7.158-15.986 15.986zM4.627 16.43a4.442 4.442 0 0 0 4.44 4.44c.932 0 1.803-.293 2.513-.781l-.036.337c0 2.45 1.99 4.44 4.441 4.44s4.44-1.99 4.44-4.44l-.036-.337a4.396 4.396 0 0 0 2.514.782c2.451 0 4.44-1.99 4.44-4.441a4.418 4.418 0 0 0-2.54-3.997 4.434 4.434 0 0 0 2.54-3.997 4.441 4.441 0 0 0-6.954-3.66l.037-.336a4.441 4.441 0 0 0-8.881 0l.036.337a4.392 4.392 0 0 0-2.513-.781 4.442 4.442 0 0 0-4.44 4.44 4.42 4.42 0 0 0 2.54 3.997 4.42 4.42 0 0 0-2.541 3.997zm11.359-8.437c2.451 0 4.44 1.989 4.44 4.44a4.441 4.441 0 0 1-8.881 0c0-2.451 1.99-4.44 4.441-4.44zM0 21.313C0 30.142 7.158 37.3 15.986 37.3c0-8.828-7.158-15.986-15.986-15.986z" fill="#63d1bb"/></svg>
