<svg id="Layer_1" data-name="Layer 1" xmlns="http://www.w3.org/2000/svg" viewBox="0 0 32 22"><defs><style>.cls-1{fill:#63d1bb;}</style></defs><title>icon-video</title><path class="cls-1" d="M26,15l6-4V27l-6-4Zm-2,0v8a4.00018,4.00018,0,0,1-4,4H4a4.00018,4.00018,0,0,1-4-4V15a4.00018,4.00018,0,0,1,4-4H14a1.99945,1.99945,0,0,1,2-2V7H5A1,1,0,0,1,5,5H17a.99948.99948,0,0,1,1,1V9a1.99913,1.99913,0,0,1,2,2A4.00018,4.00018,0,0,1,24,15ZM12,15H4v8h8Zm8,1a.99948.99948,0,0,0-1-1H15a1,1,0,0,0,0,2h4A.99947.99947,0,0,0,20,16Z" transform="translate(0 -5)"/></svg>