<?xml version="1.0" encoding="utf-8"?>
<!-- Generator: Adobe Illustrator 21.1.0, SVG Export Plug-In . SVG Version: 6.00 Build 0)  -->
<svg version="1.1" id="Layer_1" xmlns="http://www.w3.org/2000/svg" xmlns:xlink="http://www.w3.org/1999/xlink" x="0px" y="0px"
	 viewBox="0 0 54.1559982 23.1830006" style="enable-background:new 0 0 54.1559982 23.1830006;" xml:space="preserve">
<style type="text/css">
	.st0{fill:#63D1BB;}
</style>
<g>
	<path class="st0" d="M40.3120117,5.7119765c-3.6469727-0.9710083-7.8389893-1.6669922-12.3590088-1.6659851
		c-2.8909912,0.0010071-5.4569702,0.2430115-7.710022,0.6229858l-6.7839966-4.6679993L0.0029907,0.0059827l5.8109741,6.1839905
		h8.4470215C9.6809692,7.7879653,7.5020142,9.7049875,7.5020142,9.7049875l0.0020142,3.7769775
		c0,0,2.3129883,1.9119873,6.9310303,3.5180063l-8.6229858-0.0050049l-5.8109741,6.1879883l13.4550171,0.0020142l6.815979-4.6920166
		c2.2609863,0.3980103,4.8220215,0.6469727,7.6810303,0.6480103c4.5219727-0.0009766,8.7119751-0.6970215,12.3599854-1.6669922
		c-1.1760254-1.7750254-1.914978-3.7429819-1.9180298-5.8770151C38.3980103,9.4559946,39.1329956,7.4849868,40.3120117,5.7119765z"
		/>
	<path class="st0" d="M43.7350464,6.7459731c-1.2839966,1.6050105-1.9689941,3.2499995-1.9650269,4.8399959
		c-0.007019,1.5969849,0.677002,3.2379761,1.9680176,4.8469858c6.3989868-2.1619883,10.4190063-4.8410044,10.4190063-4.8410044
		S50.1380005,8.9119883,43.7350464,6.7459731z"/>
</g>
</svg>
