<svg xmlns="http://www.w3.org/2000/svg" viewBox="0 0 32.666 32.486"><path d="M2.895 32.486h12.504v-13.91H2.895v13.91zm28.182-23.62h-7.335c.521-.267.984-.549 1.396-.845 1.588-1.133 2.424-2.57 2.42-3.999.002-1.169-.556-2.202-1.359-2.901A4.585 4.585 0 0 0 23.183 0c-1.22-.001-2.352.421-3.32 1.069-1.459.979-2.606 2.451-3.424 4.067-.039.079-.078.157-.115.236a12.945 12.945 0 0 0-1.041-1.792c-.691-.985-1.523-1.86-2.497-2.511C11.816.423 10.683 0 9.464 0 8.251.004 7.141.514 6.309 1.295c-.828.783-1.41 1.885-1.412 3.135-.002.73.211 1.494.649 2.188.552.872 1.424 1.628 2.633 2.248H1.591C.713 8.866 0 9.578 0 10.456v5.897h15.396V8.865h1.873v7.488h15.396v-5.897a1.585 1.585 0 0 0-1.588-1.59M8.715 6.527c-.622-.391-1-.785-1.22-1.135-.22-.354-.294-.662-.296-.963-.004-.504.248-1.042.691-1.461.437-.415 1.028-.667 1.562-.667h.013c.685 0 1.366.231 2.046.683 1.018.671 1.975 1.85 2.645 3.187.342.676.609 1.39.789 2.087-3.082-.321-5.078-1.002-6.23-1.731M19.252 4.9c.557-.797 1.21-1.466 1.887-1.916.68-.451 1.362-.683 2.047-.683h.006c.574 0 1.117.22 1.494.55.377.336.571.739.573 1.171-.004.512-.272 1.259-1.467 2.132-1.138.825-3.101 1.673-6.127 2.265A10.57 10.57 0 0 1 19.252 4.9m-1.98 27.586h12.506v-13.91H17.272v13.91z" fill="#63d1bb"/></svg>
