<svg id="Layer_1" xmlns="http://www.w3.org/2000/svg" viewBox="0 0 54.156 23.183"><style>.st0{fill:#63d1bb}</style><path class="st0" d="M40.312 5.712c-3.647-.971-7.839-1.667-12.359-1.666a46.398 46.398 0 0 0-7.71.623L13.459.001.003.006 5.814 6.19h8.447c-4.58 1.598-6.759 3.515-6.759 3.515l.002 3.777S9.817 15.394 14.435 17l-8.623-.005-5.81 6.188 13.454.002 6.816-4.692c2.261.398 4.822.647 7.681.648 4.522-.001 8.712-.697 12.36-1.667-1.176-1.775-1.915-3.743-1.918-5.877.003-2.141.738-4.112 1.917-5.885zM43.735 6.746c-1.284 1.605-1.969 3.25-1.965 4.84-.007 1.597.677 3.238 1.968 4.847 6.399-2.162 10.419-4.841 10.419-4.841s-4.019-2.68-10.422-4.846z"/></svg>
