<?xml version="1.0" encoding="utf-8"?>
<!-- Generator: Adobe Illustrator 21.1.0, SVG Export Plug-In . SVG Version: 6.00 Build 0)  -->
<svg version="1.1" id="Money" xmlns="http://www.w3.org/2000/svg" xmlns:xlink="http://www.w3.org/1999/xlink" x="0px" y="0px"
	 viewBox="0 0 46.5750008 27.3320007" style="enable-background:new 0 0 46.5750008 27.3320007;" xml:space="preserve">
<style type="text/css">
	.st0{fill:#63D1BB;}
</style>
<path class="st0" d="M42.670002-0.0000446H3.9039993C1.7480011-0.0000446,0,1.748956,0,3.9049542V23.425951
	c0,2.1559982,1.7480011,3.9049988,3.9039993,3.9049988H42.670002c2.1559982,0,3.9049988-1.7490005,3.9049988-3.9049988V3.9049542
	C46.5750008,1.748956,44.8260002-0.0000446,42.670002-0.0000446z M3.0229988,24.9499531V2.7169545h40.2019958v22.2329979H3.0229988z
	"/>
<path class="st0" d="M6.9279976,21.0459538h32.3950043V6.6219573H6.9279976V21.0459538z M23.2879982,8.5199518
	c2.935997,0,5.3150024,2.3799973,5.3150024,5.314003c0,2.935998-2.3789978,5.3140039-5.3150024,5.3140039
	s-5.314003-2.3789978-5.314003-5.3140039C17.9729958,10.8989573,20.3520012,8.5199518,23.2879982,8.5199518z"/>
</svg>
