<svg id="svg4488" xmlns="http://www.w3.org/2000/svg" viewBox="0 0 40.219 62.411"><style>.st0{fill:#149080}</style><path class="st0" d="M15.178 37.958c-.286.966-.245 2.191.027 3.639.494 2.634 1.686 6.04 2.358 9.67h5.062c.696-3.641 1.95-7.05 2.47-9.683.288-1.445.33-2.66.041-3.617-.275-.9-.89-1.618-2.021-2.303h-5.997c-1.074.679-1.674 1.39-1.94 2.294zM27.01 57.953h-13.8c-1.293 0-2.3.976-2.3 2.23v2.228H29.31v-2.228c0-1.254-1.007-2.23-2.3-2.23zM34.142 2.229H22.41C22.41.985 21.395 0 20.11 0c-1.284 0-2.3.985-2.3 2.229H6.073L0 27.746c.794-.462 1.589-.993 2.632-.993 1.359 0 2.242.818 2.924 1.376.682.557 1.161.848 1.447.848.291.002.768-.287 1.45-.835.682-.549 1.565-1.358 2.916-1.358 1.348 0 2.236.805 2.919 1.353.683.549 1.16.84 1.45.84.147 0 .34-.072.58-.214.242-.14.53-.352.872-.626.512-.41 1.139-.968 1.99-1.219.284-.085.593-.135.93-.135 1.346 0 2.237.805 2.92 1.354.682.548 1.158.84 1.45.84.288-.002.767-.296 1.446-.85.684-.553 1.57-1.366 2.925-1.366 1.356 0 2.239.817 2.919 1.37.342.277.631.49.872.632.24.143.43.214.574.214.288 0 .762-.293 1.443-.854.68-.559 1.567-1.384 2.928-1.384 1.045 0 1.84.533 2.632.997L34.142 2.229zM23.523 53.495H16.66c-.657 0-1.15.48-1.15 1.115s.493 1.114 1.15 1.114h6.9c.655 0 1.15-.479 1.15-1.114 0-.635-.495-1.115-1.15-1.115h-.037zM20.11 29.011c-.147 0-.339.074-.58.214-.157.093-.37.26-.57.41v3.73h2.3v-3.73c-.507-.38-.91-.624-1.15-.624z"/></svg>
