<?xml version="1.0" encoding="utf-8"?>
<!-- Generator: Adobe Illustrator 21.1.0, SVG Export Plug-In . SVG Version: 6.00 Build 0)  -->
<svg version="1.1" id="svg4488" xmlns="http://www.w3.org/2000/svg" xmlns:xlink="http://www.w3.org/1999/xlink" x="0px" y="0px"
	 viewBox="0 0 40.2192001 62.4110985" style="enable-background:new 0 0 40.2192001 62.4110985;" xml:space="preserve">
<style type="text/css">
	.st0{fill:#149080;}
</style>
<g>
	<path class="st0" d="M15.1777039,37.9579506c-0.2855988,0.9657898-0.2445984,2.1914024,0.0269012,3.6387024
		c0.4940948,2.6347008,1.6864929,6.0410004,2.3583984,9.669899H22.625c0.6963043-3.6405983,1.9492035-7.0498085,2.4707031-9.6825981
		c0.2870941-1.4453011,0.3295898-2.6602135,0.0404968-3.6172104c-0.2749023-0.8993912-0.8901062-1.617691-2.0214996-2.3026924
		h-5.9965057C16.0435028,36.3427429,15.4438934,37.0546532,15.1777039,37.9579506z"/>
	<path class="st0" d="M27.0092926,57.9530525H13.2100067c-1.2929993,0-2.299408,0.9755974-2.299408,2.2294998v2.2284966h2.299408
		h13.7992859h2.2993011v-2.2284966C29.3085938,58.9286499,28.3022003,57.9530525,27.0092926,57.9530525z"/>
	<path class="st0" d="M34.1421051,2.2289536H22.4096985c0-1.2441006-1.0151978-2.2290001-2.300293-2.2290001
		c-1.2832031,0-2.2998047,0.9848995-2.2998047,2.2290001H6.0727997L0,27.745554
		c0.7939148-0.461401,1.5888977-0.9922009,2.6318054-0.9922009c1.358902,0,2.242691,0.8178997,2.9238892,1.3754997
		c0.6820984,0.5571003,1.1616058,0.8486004,1.4472046,0.8486004c0.2915039,0.0014992,0.7686005-0.2870998,1.4506989-0.8358994
		c0.6811981-0.5483017,1.5639954-1.3579006,2.9151001-1.3579006c1.3486023,0,2.2368011,0.8057003,2.9188995,1.3535004
		c0.683609,0.5487995,1.1605988,0.8402996,1.4512024,0.8402996c0.1464996,0,0.3383942-0.0727119,0.5796051-0.2143002
		c0.2416992-0.1410999,0.5301971-0.3526001,0.8714905-0.6264992c0.5122986-0.4106007,1.1387024-0.9673004,1.9898071-1.2182007
		c0.2841949-0.085001,0.592804-0.1358013,0.9297028-0.1358013c1.3470917,0,2.237793,0.8052006,2.9198914,1.354002
		c0.6826019,0.548399,1.1587067,0.8402996,1.4512024,0.8402996c0.2870941-0.0024014,0.766098-0.2963009,1.4452972-0.8495998
		c0.6840973-0.5537014,1.5708008-1.3667011,2.9248047-1.3667011c1.3563995,0,2.2391968,0.8174,2.9194031,1.3710899
		c0.3417969,0.2764111,0.6313934,0.4893112,0.8715973,0.6314106c0.2402039,0.1429996,0.4311981,0.2138004,0.5746918,0.2138004
		c0.2876129,0,0.7617035-0.2933998,1.4424133-0.8540001c0.680191-0.559,1.5673981-1.3837013,2.9286957-1.3837013
		c1.0444031,0,1.8394012,0.5327015,2.6317902,0.9964905L34.1421051,2.2289536z"/>
	<path class="st0" d="M23.523407,53.4950523h-6.8637085c-0.6567993,0-1.1499023,0.4794998-1.1499023,1.1152
		c0,0.6348,0.493103,1.1133003,1.1499023,1.1133003h6.8999023c0.6551971,0,1.1499023-0.4785004,1.1499023-1.1133003
		c0-0.6357002-0.4947052-1.1152-1.1499023-1.1152H23.523407z"/>
	<path class="st0" d="M20.1094055,29.0111523c-0.1460114,0-0.3379059,0.0742016-0.5796051,0.2133999
		c-0.1567078,0.0938015-0.3701019,0.2607002-0.5697937,0.4097004v3.7309017h2.2992859v-3.7309017
		C20.7528992,29.2553539,20.3500977,29.0111523,20.1094055,29.0111523z"/>
</g>
</svg>
