<?xml version="1.0" encoding="utf-8"?>
<!-- Generator: Adobe Illustrator 21.1.0, SVG Export Plug-In . SVG Version: 6.00 Build 0)  -->
<svg version="1.1" id="svg4488" xmlns="http://www.w3.org/2000/svg" xmlns:xlink="http://www.w3.org/1999/xlink" x="0px" y="0px"
	 viewBox="-259.4042969 -19.6747875 40.2192001 62.4110985"
	 style="enable-background:new -259.4042969 -19.6747875 40.2192001 62.4110985;" xml:space="preserve">
<g>
	<path d="M-244.226593,18.2832108c-0.2855988,0.9657898-0.2445984,2.1914005,0.0269012,3.6387005
		c0.4940948,2.6347008,1.6864929,6.0410004,2.3583984,9.6699009h5.0619965
		c0.6963043-3.6406002,1.9492035-7.0498104,2.4707031-9.6826c0.2870941-1.4453011,0.3295898-2.6602116,0.0404968-3.6172104
		c-0.2749023-0.8993893-0.8901062-1.617691-2.0214996-2.3026905h-5.9965057
		C-243.3607941,16.6680012-243.9604034,17.3799114-244.226593,18.2832108z"/>
	<path d="M-232.3950043,38.2783127h-13.7992859c-1.2929993,0-2.299408,0.9755974-2.299408,2.2294998v2.2284966h2.299408h13.7992859
		h2.2993011v-2.2284966C-230.0957031,39.2539101-231.1020966,38.2783127-232.3950043,38.2783127z"/>
	<path d="M-225.2621918-17.4457874h-11.7324066c0-1.2441006-1.0151978-2.2290001-2.300293-2.2290001
		c-1.2832031,0-2.2998047,0.9848995-2.2998047,2.2290001h-11.7368011l-6.0727997,25.5165997
		c0.7939148-0.4614005,1.5888977-0.9922004,2.6318054-0.9922004c1.358902,0,2.242691,0.8178997,2.9238892,1.3755002
		c0.6820984,0.5570993,1.1616058,0.8485994,1.4472046,0.8485994c0.2915039,0.0015001,0.7686005-0.2870998,1.4506989-0.8358994
		c0.6811981-0.5483003,1.5639954-1.3579001,2.9151001-1.3579001c1.3486023,0,2.2368011,0.8056998,2.9188995,1.3534999
		c0.683609,0.5487995,1.1605988,0.8402996,1.4512024,0.8402996c0.1464996,0,0.3383942-0.072711,0.5796051-0.2143002
		c0.2416992-0.1410999,0.5301971-0.3525991,0.8714905-0.6264992c0.5122986-0.4106007,1.1387024-0.9673004,1.9898071-1.2182002
		c0.2841949-0.085,0.592804-0.1358004,0.9297028-0.1358004c1.3470917,0,2.237793,0.8052001,2.9198914,1.3540006
		c0.6826019,0.5483999,1.1587067,0.8402996,1.4512024,0.8402996c0.2870941-0.0024004,0.766098-0.2962999,1.4452972-0.8495998
		c0.6840973-0.5537,1.5708008-1.3667002,2.9248047-1.3667002c1.3563995,0,2.2391968,0.8174,2.9194031,1.371089
		c0.3417969,0.2764111,0.6313934,0.4893112,0.8715973,0.6314106c0.2402039,0.1430006,0.4311981,0.2138004,0.5746918,0.2138004
		c0.2876129,0,0.7617035-0.2933998,1.4424133-0.8540001c0.680191-0.559,1.5673981-1.3836999,2.9286957-1.3836999
		c1.0444031,0,1.8394012,0.5327001,2.6317902,0.996489L-225.2621918-17.4457874z"/>
	<path d="M-235.8808899,33.8203125h-6.8637085c-0.6567993,0-1.1499023,0.4794998-1.1499023,1.1152
		c0,0.6348,0.493103,1.1133003,1.1499023,1.1133003h6.8999023c0.6551971,0,1.1499023-0.4785004,1.1499023-1.1133003
		c0-0.6357002-0.4947052-1.1152-1.1499023-1.1152H-235.8808899z"/>
	<path d="M-239.2948914,9.3364115c-0.1460114,0-0.3379059,0.0742006-0.5796051,0.2133999
		c-0.1567078,0.0938005-0.3701019,0.2607002-0.5697937,0.4097004v3.7308998h2.2992859V9.9595118
		C-238.6513977,9.5806122-239.0541992,9.3364115-239.2948914,9.3364115z"/>
</g>
</svg>
