<svg xmlns="http://www.w3.org/2000/svg" viewBox="32.458 20.216 85.589 35.034"><path d="M36.638 46.517c-.013-3.472-.262-6.937-.356-10.409-.008-.34-.015-.68-.02-1.02l.146.364c.54 1.351 1.102 2.663 1.839 3.92.731 1.244 1.098 2.58 1.52 3.94-.16.18-.256.389-.196.595-.033.15.058.245.212.305.537.46 1.55.232 2.113-.007.242-.102.474-.221.696-.356.29-.18.744-.572.614-.976-.025-.08-.05-.158-.073-.236.397-1.068.598-2.179.814-3.307.23-1.206.659-2.345 1.092-3.486.043.52.087 1.044.128 1.567.174 2.147.029 4.27.008 6.422a9.933 9.933 0 0 0 .184 2.075c.058.287.31 1.521.235 1.588-.515.475-.366 1.06.326 1.21.772.17 1.753-.087 2.333-.624 1.01-.934.532-2.397.304-3.573-.385-1.972.077-4.18.017-6.19-.07-2.259-.43-4.502-.4-6.768.024-1.83.328-3.714-.302-5.47.039-.2.08-.399.117-.6.163-.879-2.754-.414-3.212.392-.29.235-.438.518-.314.805.032.072.057.147.084.219-.551 2.7-1.321 5.313-2.207 7.93-.339 1-.748 1.976-1.094 2.977-.49-.932-.987-1.85-1.384-2.846-1.155-2.891-2.2-5.814-3.61-8.596.16-1.29-2.698-1.154-3.262.026-.681 1.426-.592 2.866-.369 4.393.254 1.72.298 3.41.32 5.147.039 3.347.3 6.69.351 10.04-.298.331-.389.741-.078 1.158.136.182.306.322.483.46.757.612 2.946.093 2.941-1.069zM54.834 28.145c-.088-.613-3.416.084-3.3.885.26 1.776.168 3.56.136 5.351-.03 1.722.394 3.283.616 4.971.225 1.732-.072 3.502.126 5.235.09.812.631 2.312.074 3.018-.355.447 1.237.285 1.31.275.646-.12 1.508-.33 1.938-.875.552-.697.165-2.042.045-2.827-.267-1.734-.097-3.537-.162-5.286-.06-1.676-.644-3.254-.65-4.946-.01-1.945.152-3.87-.133-5.8zM57.958 34.79c.91 2.514 4.648 1.328 6.55 1.471 3.239.24 2.273 4.608 2.314 6.64.022 1.086.995 2.89.178 3.799-.501.555-1.668.589-2.351.646-.687.057-1.854.261-2.312-.39-.836-1.194.078-3.2-.101-4.568-.103-.78-3.424-.08-3.299.884.29 2.211-1.179 5.175 2.022 5.556 2.059.244 4.373-.136 6.318-.784 1.008-.334 1.943-.792 2.731-1.508.872-.794.585-1.98.352-2.988-.57-2.458.616-5.289-.987-7.454-1.739-2.344-4.962-.657-7.212-1.297-1.161-.33-1.175-1.91-1.17-2.86.002-1.202-.098-2.302-.232-3.491-.1-.887-.02-1.787.628-2.447.12-.122.723-.284.68-.287.3-.05.573-.062.901-.076 1.304-.055 3.885.196 3.386 2.092-.226.85 3.028.363 3.266-.537 1.02-3.874-6.138-3.13-8.16-2.593-1.863.494-3.916 1.555-4.023 3.704-.052 1.028.23 2.006.274 3.023.053 1.169-.165 2.337.247 3.466zM72.413 36.66c-.053 1.8-.208 3.593-.22 5.393-.006.921.145 1.842.278 2.75.122.841.407 1.964.153 2.796-.199.647 3 .242 3.253-.587.458-1.497-.187-3.402-.34-4.918-.148-1.45-.033-2.945.072-4.42 1.708-.11 3.418-.249 5.119-.01.076 1.163.164 2.32.272 3.483.088.976.152 1.948.165 2.929.014.855.12 2.098-.185 2.913-.651 1.731 2.655 1.59 3.136.307.592-1.577.423-3.537.323-5.194-.13-2.059-.404-4.106-.47-6.166-.101-3.183-.58-6.329-.594-9.516-.006-1.66-3.337-1.098-3.33.288.011 3.04.416 6.038.57 9.069.006.06.009.121.01.184-1.64-.015-3.28.15-4.928.207.17-3.902-.515-7.771-.364-11.671.019-.493-3.264-.078-3.3.882-.146 3.772.493 7.512.38 11.282zM86.493 42.032c-.254.259-.16.414.045.506 0 1.473-.05 2.949-.178 4.423-.397.63.39.96.912.96h.082c.622 0 2.209-.293 2.289-1.148.162-1.769.211-3.535.196-5.299 1.337-1.446 2.434-3.057 3.416-4.748.64 1.248 1.247 2.505 1.676 3.861.725 2.31 1.938 4.431 2.637 6.75.459 1.522 3.754.621 3.298-.884-.701-2.32-1.857-4.462-2.638-6.75-.791-2.323-1.998-4.362-3.046-6.569.845-1.64 1.7-3.283 2.47-4.96.698-1.524 1.219-3.216 2.594-4.289.483-.376.463-.755-.216-.8-.738-.054-1.738.159-2.334.624-1.25.974-2.042 2.159-2.695 3.595a136.365 136.365 0 0 1-2.455 5.117c-.06.123-.125.248-.187.373-.412.264-.66.642-.54 1.065-.665 1.316-1.346 2.627-2.104 3.885-.252-4.661-.802-9.318-.968-13.984-.037-1.068-3.345-.403-3.297.886.204 5.785 1.024 11.557 1.083 17.34l-.04.046zM118.027 35.8c-.177-.7-1.155-.716-1.914-.648-.01-.281-.017-.567-.03-.849-.106-2.24-.138-4.53-.329-6.764-.175-2.07-1.335-2.812-3.345-2.735-2.035.077-4.405.444-6.302 1.183-2.197.852-3.421 2.47-3.84 4.784-.465 2.54.2 5.238.313 7.79.13 2.95.055 5.908.053 8.858 0 .485 3.297.028 3.297-.883.004-2.338.037-4.676 0-7.014a44.8 44.8 0 0 0-.085-2.057c1.155-.499 3.107.01 4.255.118.933.09 1.826-.137 2.733-.244.016 1.947.09 3.906.17 5.851.041.997.402 2.975-.297 3.799-.369.435 1.249.288 1.31.28.667-.124 1.482-.338 1.939-.877.8-.942.383-3.192.337-4.316-.065-1.612-.085-3.223-.12-4.834.972-.131 2.037-.727 1.855-1.442zm-6.662-.162c-1.928-.046-3.828-.348-5.652.036-.086-1.05-.182-2.097-.254-3.154-.134-1.962.098-4.702 1.927-5.895.492-.319 1.413-.264 1.985-.369.819-.147 1.647-.328 2.383.16 1.018.676.769 3.08.766 4.101-.002 1.69.177 3.37.262 5.059-.465.046-.938.072-1.417.062zM51.159 24.322a.577.577 0 0 0 .119.497l.002.114.012.282a.764.764 0 0 0 .363.447c.325.196.737.232 1.108.196.44-.041.882-.192 1.245-.44.073-.061.143-.122.216-.182.439-.282.818-.697.612-1.147-.423-.931-.358-1.88-.35-2.875.006-.807-.81-1.05-1.5-.989-.609.054-1.827.49-1.831 1.28-.007.835-.062 1.698.092 2.522-.041.092-.065.198-.088.295zM112.736 53.505c-1.558-.585-3.283-.615-4.85-.787-1.603-.17-3.246-.41-4.885-.562-1.636.052-3.31.027-4.971.129l-4.88.267c-6.487.29-13 .253-19.517.108-6.516-.123-13.045-.477-19.63-.453a226.4 226.4 0 0 0-9.862.25c-1.632.283-3.24.5-4.904.913-1.615.4-3.145.907-4.794 1.047 1.623.363 3.34.292 4.962.297 1.579.01 3.243.143 4.872.232 3.228-.172 6.487-.246 9.733-.258 6.488-.024 13.015.33 19.566.451 6.548.147 13.114.186 19.682-.11l4.908-.269c1.602-.071 3.198-.127 4.829-.067 1.628-.149 3.253-.33 4.918-.532 1.664-.239 3.22-.627 4.854-.51l.074.007.006-.055c.022-.178-.04-.323-.04-.48-.035.128-.04.265-.071.382z"/></svg>
