<?xml version="1.0" encoding="utf-8"?>
<!-- Generator: Adobe Illustrator 21.1.0, SVG Export Plug-In . SVG Version: 6.00 Build 0)  -->
<svg version="1.1" id="Layer_2" xmlns="http://www.w3.org/2000/svg" xmlns:xlink="http://www.w3.org/1999/xlink" x="0px" y="0px"
	 viewBox="32.4580345 20.2162685 85.5892944 35.0341988"
	 style="enable-background:new 32.4580345 20.2162685 85.5892944 35.0341988;" xml:space="preserve">
<g>
	<path d="M36.638134,46.517067c-0.0135994-3.4715996-0.261692-6.9375076-0.3563995-10.4090996
		c-0.0078011-0.339901-0.0147018-0.6806984-0.0195007-1.0205994c0.0488014,0.1221008,0.0965996,0.2431908,0.1455002,0.3642998
		c0.5400009,1.3516006,1.1025009,2.6631012,1.8388023,3.9198914c0.7314987,1.2442093,1.0986977,2.5801086,1.5204964,3.9395103
		c-0.1590996,0.1815987-0.2557983,0.3895988-0.1961975,0.5956993c-0.0331993,0.1503983,0.0586052,0.2450981,0.2118988,0.3055992
		c0.5371017,0.4599991,1.5498009,0.2314987,2.1133003-0.0078087c0.2420998-0.10149,0.4735985-0.2206917,0.6962013-0.3553925
		c0.2901001-0.1806984,0.7442055-0.5723,0.6133003-0.9766083c-0.0244026-0.0790901-0.0488014-0.1571922-0.0722008-0.2353897
		c0.3964005-1.0683022,0.597599-2.1786995,0.8134003-3.3076096c0.2304993-1.2060013,0.6591988-2.3446922,1.0918007-3.4852905
		c0.0429993,0.5205002,0.0879059,1.0438995,0.1289062,1.5663986c0.173893,2.1473999,0.0283928,4.2695007,0.0078926,6.4218903
		c-0.0078926,0.7129097,0.0458984,1.375,0.1834984,2.0752106c0.058609,0.2870979,0.3096085,1.5214005,0.2354012,1.5877914
		c-0.5156021,0.4756088-0.3661995,1.0606079,0.3262062,1.2109985c0.771492,0.168911,1.7528954-0.0878906,2.3330002-0.625
		c1.0087929-0.9335899,0.5311928-2.396492,0.3036919-3.5722885c-0.3848-1.9726028,0.0771027-4.180603,0.0166016-6.1894035
		c-0.069294-2.2597961-0.4296989-4.5029984-0.3993988-6.7685986c0.0233994-1.8309994,0.3281059-3.7138996-0.302803-5.4707088
		c0.0391006-0.2001896,0.080101-0.3983898,0.1172028-0.5995903c0.1630974-0.8789005-2.7539024-0.4141006-3.2119026,0.3915901
		c-0.2899971,0.2354107-0.4375,0.51861-0.3134995,0.8057098c0.0312996,0.0712891,0.0567017,0.1464005,0.0839996,0.2187004
		c-0.5516968,2.6991997-1.3212967,5.3134995-2.2069969,7.9296989c-0.3388939,1.0009995-0.7481003,1.9766006-1.0946999,2.9775009
		c-0.490303-0.9326096-0.9864006-1.850502-1.3838005-2.846611c-1.1553001-2.8906898-2.1991997-5.8134899-3.6103935-8.5956898
		c0.1601906-1.2890987-2.6977081-1.1534004-3.2612076,0.0263004c-0.6815987,1.4258003-0.5923004,2.8661995-0.3690987,4.3925991
		c0.2543068,1.7207012,0.2977982,3.4111004,0.3197975,5.147501c0.0386009,3.3465996,0.3003006,6.6893997,0.3511009,10.0400009
		c-0.2979012,0.3310966-0.3886986,0.7411995-0.0776978,1.1581993c0.1357994,0.1815987,0.3056984,0.3213005,0.482399,0.4599991
		C34.4536362,48.1977692,36.6430359,47.6791687,36.638134,46.517067z"/>
	<path d="M54.8344421,28.1450691c-0.08881-0.6133003-3.4160004,0.0838985-3.2998085,0.8846989
		c0.2588081,1.7763996,0.1669998,3.5605984,0.135807,5.3515987c-0.0313072,1.7217026,0.3934937,3.2821922,0.6151924,4.9707031
		c0.2256012,1.732399-0.0713005,3.5018997,0.1259995,5.2352982c0.0898094,0.8115997,0.6318092,2.3115997,0.0741997,3.017601
		c-0.3544998,0.4473,1.2373009,0.2851982,1.3096085,0.2753983c0.646492-0.1200981,1.5087929-0.3310013,1.9383926-0.875
		c0.5517998-0.6973,0.1651001-2.0419998,0.045002-2.8270988c-0.2666016-1.7344017-0.0967026-3.5371017-0.1621017-5.2862015
		c-0.0606003-1.6758003-0.6436005-3.2538986-0.6503983-4.9463005
		C54.9565353,32.0014687,55.1186333,30.0766678,54.8344421,28.1450691z"/>
	<path d="M57.9575348,34.7905579c0.910099,2.5136108,4.6483994,1.3271103,6.5507965,1.4707108
		c3.238205,0.2392006,2.2723999,4.607399,2.3134003,6.6405983c0.0224991,1.0850029,0.9952011,2.8886909,0.1787109,3.797802
		c-0.5019073,0.5556984-1.6689072,0.5888901-2.3515091,0.6464996c-0.6864929,0.0566978-1.8534927,0.2607994-2.3114929-0.3896103
		c-0.8359985-1.1943893,0.077095-3.2001915-0.1016083-4.5683899c-0.1024971-0.780201-3.4237976-0.080101-3.2987976,0.8838005
		c0.2900009,2.2109985-1.1786995,5.1748009,2.0224075,5.5556984c2.0585899,0.2441025,4.3720932-0.1357994,6.3173904-0.7831993
		c1.0077972-0.3339996,1.9433975-0.7919998,2.7314987-1.5088005c0.8720016-0.7939987,0.5848999-1.9794998,0.3515015-2.9873009
		c-0.5692978-2.4580002,0.6162033-5.2890968-0.9872971-7.4540977c-1.7383041-2.3447113-4.9618988-0.6571999-7.2119026-1.2969017
		c-1.1610985-0.3300972-1.1748009-1.9110985-1.169899-2.8602982c0.0018997-1.2021999-0.097702-2.3017998-0.2314987-3.4913006
		c-0.0996017-0.8866997-0.0205002-1.7870998,0.6279984-2.4472103c0.1190987-0.1210899,0.722599-0.2831898,0.6805992-0.28619
		c0.2989006-0.0506992,0.5723-0.0625,0.9004021-0.0760994c1.3036995-0.0557098,3.8848,0.1952896,3.3857994,2.0917988
		c-0.2255936,0.8506012,3.0282974,0.3632011,3.2656021-0.5370998c1.0205002-3.8740997-6.1377029-3.1308994-8.1591949-2.5927982
		c-1.863308,0.4940987-3.9160004,1.5546989-4.023407,3.7040997c-0.0517998,1.0272884,0.2294998,2.0058002,0.2744064,3.0223999
		C57.7641335,32.4936676,57.5463333,33.6616669,57.9575348,34.7905579z"/>
	<path d="M72.4126358,36.6606674c-0.052803,1.7988014-0.2080994,3.5928001-0.2198029,5.392601
		c-0.0057983,0.9208984,0.1455002,1.8418007,0.2784042,2.75c0.121994,0.8408012,0.4072037,1.9637985,0.152298,2.7958984
		c-0.198204,0.6463928,3,0.2420998,3.2539062-0.586998c0.4580002-1.4970016-0.1875076-3.4023018-0.3408051-4.9179001
		c-0.1475067-1.4512024-0.032196-2.9453011,0.072197-4.419899c1.7080994-0.1104012,3.4179993-0.2491035,5.1192017-0.0108109
		c0.0761948,1.1631088,0.1640015,2.3213081,0.2724075,3.4834099c0.0878906,0.9755898,0.1513901,1.9482994,0.164093,2.9286995
		c0.0146942,0.8554993,0.1200943,2.0986977-0.1846008,2.9131012c-0.6512985,1.7314987,2.6552963,1.5898972,3.1357956,0.3075981
		c0.5918045-1.5770988,0.4228058-3.5370979,0.323204-5.1942978c-0.1298981-2.0586014-0.4043045-4.1065102-0.4697037-6.1660004
		c-0.1016006-3.1826019-0.580101-6.3291016-0.5937881-9.5156002c-0.006813-1.6612015-3.3378067-1.0987015-3.3310013,0.2879982
		c0.0116959,3.0400906,0.4169998,6.0370922,0.5712891,9.0683994c0.0049057,0.0605011,0.0078049,0.1211014,0.0097122,0.1846008
		c-1.6396103-0.0157013-3.2812119,0.1493988-4.9287109,0.2070007c0.1708984-3.9023018-0.514595-7.7714996-0.3641968-11.6719112
		c0.0195007-0.4921894-3.2637024-0.0770893-3.2998047,0.8828106C71.8872299,29.1508675,72.5258331,32.8911667,72.4126358,36.6606674
		z"/>
	<path d="M86.49263,42.0317688c-0.2538986,0.2587891-0.1590958,0.4139977,0.0450058,0.5057907
		c0.0009003,1.4737091-0.0498047,2.9493065-0.177803,4.4239082c-0.3964996,0.6297989,0.3897018,0.9598999,0.9121017,0.9598999
		c0.0283966,0,0.0546951,0,0.0820999,0c0.6220016,0,2.2089005-0.2929001,2.2890015-1.1483994
		c0.1620941-1.7686005,0.2109985-3.535202,0.1962967-5.2988014c1.3368988-1.4463005,2.4336014-3.0566978,3.4160004-4.7481003
		c0.6397018,1.2481003,1.2471085,2.5049019,1.6757965,3.8613014c0.7246017,2.3096008,1.9375,4.4306984,2.6367035,6.75
		c0.4589996,1.5214996,3.7538986,0.6211014,3.2978973-0.8847008c-0.7011948-2.3194008-1.8564987-4.4618988-2.6376953-6.75
		c-0.7910004-2.3223-1.9981003-4.3614006-3.0458984-6.5683975c0.844696-1.6406021,1.6991959-3.2832012,2.469696-4.9599018
		c0.6983032-1.5244999,1.2188034-3.2159004,2.5938034-4.2890987c0.4833984-0.3760014,0.4638062-0.7549-0.2159042-0.8008003
		c-0.7372894-0.0536995-1.7381973,0.1591988-2.3339005,0.625c-1.25,0.9736004-2.0419998,2.1581993-2.6943893,3.5946999
		c-0.7842102,1.7255993-1.5976105,3.4209003-2.4551086,5.1171989c-0.0605011,0.1231003-0.125,0.2481003-0.1875,0.3731003
		c-0.4121017,0.2635994-0.6601028,0.6416016-0.5390015,1.0643997c-0.6660004,1.3163986-1.3467026,2.6269989-2.1044998,3.8848
		c-0.2519989-4.6611099-0.8026962-9.3174-0.9687958-13.9833984c-0.0360947-1.0684013-3.3447037-0.4033012-3.2968063,0.8856983
		c0.2041016,5.7852001,1.0244064,11.5566998,1.0830002,17.3398991C86.5200348,42.0024681,86.5053329,42.0180664,86.49263,42.0317688
		z"/>
	<path d="M118.0268326,35.8002663c-0.1766968-0.7010994-1.155304-0.7157974-1.9140015-0.6483994
		c-0.0097961-0.2813072-0.0166016-0.5663986-0.0292969-0.8485985c-0.1064987-2.2411995-0.1387024-4.5303001-0.3290939-6.7647095
		c-0.1758041-2.0692902-1.3349991-2.811491-3.3457108-2.7343903c-2.0351944,0.0771999-4.4042892,0.4433899-6.301796,1.1826992
		c-2.1973038,0.8525009-3.4208984,2.4706898-3.8407974,4.7840996c-0.4639053,2.5391026,0.2010956,5.2383022,0.3134003,7.7890987
		c0.1299057,2.9512024,0.0556946,5.9092026,0.0537949,8.8594017c0,0.4842987,3.2967987,0.0273018,3.2967987-0.8838005
		c0.0039062-2.3378983,0.0371017-4.6758003,0-7.0136986c-0.0106888-0.6884995-0.0429001-1.3740005-0.0848999-2.0566025
		c1.1552124-0.4990997,3.1063995,0.0097008,4.2549057,0.118103c0.9325943,0.0888977,1.8260956-0.1377029,2.732399-0.2441025
		c0.0165939,1.9463005,0.089798,3.9053001,0.1699066,5.8506012c0.0419998,0.9971008,0.4022903,2.9745903-0.2969055,3.7988014
		c-0.3680954,0.4355965,1.2489929,0.2880974,1.3095932,0.2803001c0.6680069-0.1240005,1.4824066-0.3379021,1.9393997-0.8770027
		c0.7999115-0.9423981,0.3838043-3.1923981,0.3379135-4.3163986c-0.0654068-1.6113014-0.085907-3.222599-0.121109-4.8339996
		C117.1440353,37.1108665,118.2085342,36.5151672,118.0268326,35.8002663z M111.3647308,35.6381683
		c-1.9276962-0.0458984-3.8280945-0.3486099-5.6513977,0.0362015c-0.0858917-1.0508118-0.1826019-2.097702-0.2547989-3.1543007
		c-0.1338043-1.9619999,0.0985947-4.7021999,1.9276962-5.8955116c0.4922104-0.3183899,1.4131012-0.263689,1.9844055-0.3681889
		c0.8192978-0.147501,1.6473999-0.3281002,2.3838043,0.160099c1.0174942,0.6758003,0.7684937,3.0800896,0.7655945,4.1006012
		c-0.0019989,1.6904888,0.1766968,3.3701,0.2616959,5.0585995
		C112.3169327,35.6215591,111.8442307,35.6479683,111.3647308,35.6381683z"/>
	<path d="M51.1587334,24.3217678c-0.0479012,0.1797009,0.0125999,0.3565006,0.1191025,0.4971008
		c0,0.0391006,0.0018997,0.0751991,0.0018997,0.1142006c0.0039978,0.0937996,0.0087967,0.1874886,0.0127068,0.282299
		c0.0615921,0.1942997,0.1816902,0.342701,0.3622932,0.4463005c0.3251991,0.1963005,0.7372971,0.232399,1.1083984,0.1963005
		c0.4394989-0.0411015,0.8819008-0.1915016,1.2452011-0.4395008c0.072197-0.0615005,0.142498-0.1221008,0.2157974-0.1826
		c0.4385033-0.2821999,0.8183098-0.6973095,0.6123085-1.1464996c-0.4238052-0.9316006-0.3584061-1.8799-0.3496056-2.875
		c0.0048981-0.8076-0.8115005-1.0508099-1.5010033-0.9892998c-0.6083908,0.0536995-1.8270988,0.4892998-1.8310966,1.2792988
		c-0.0068016,0.8360004-0.0615005,1.6983013,0.0917969,2.522501C51.2055359,24.1186676,51.1821327,24.225069,51.1587334,24.3217678z
		"/>
	<path d="M112.7358322,53.5053673c-1.5576019-0.5848999-3.2832031-0.6152-4.8506012-0.7870979
		c-1.6025009-0.1699028-3.2451019-0.410202-4.8837891-0.5625c-1.6367111,0.0527-3.3095093,0.027298-4.9717102,0.1288986
		l-4.8797989,0.267601c-6.4872971,0.2889977-12.9990997,0.2528992-19.5166016,0.107399
		c-6.5165939-0.1230011-13.0449982-0.4766006-19.6298904-0.4531097c-3.288105,0.0078087-6.565506,0.0986099-9.8623085,0.25
		c-1.631897,0.2832108-3.2392998,0.5009995-4.9042969,0.9131088c-1.6152992,0.3993988-3.1445999,0.9071999-4.7940025,1.047802
		c1.6231003,0.3622971,3.3409004,0.2919998,4.9619026,0.2968979c1.5790977,0.0098,3.2431984,0.142601,4.872097,0.2313995
		c3.2285004-0.1717987,6.4873009-0.2460976,9.7334023-0.2577972c6.4873009-0.0244102,13.014698,0.3290977,19.5653954,0.4511986
		c6.547905,0.1464996,13.1143036,0.1855011,19.6827011-0.1104012l4.9072037-0.2684975
		c1.6025009-0.0713005,3.1981964-0.1270027,4.8291016-0.0674019c1.6278992-0.1483994,3.2528992-0.330101,4.9179993-0.5321999
		c1.6639938-0.2383003,3.219696-0.6269989,4.854393-0.5088005l0.0743027,0.0059013l0.0057983-0.0546989
		c0.0214996-0.177803-0.0400009-0.3233032-0.0400009-0.4795113
		C112.7719345,53.2514687,112.7670288,53.3881683,112.7358322,53.5053673z"/>
</g>
</svg>
