<svg xmlns="http://www.w3.org/2000/svg" viewBox="0 0 457.6 349.5"><path d="M440.7 82.5s-4.2-31.9-17.2-45.8c-16.5-18.4-34.9-18.5-43.4-19.5-60.6-4.6-151.4-4.6-151.4-4.6h-.2s-90.8 0-151.4 4.6c-8.5 1-26.9 1.2-43.4 19.5-12.8 14.1-17.1 45.8-17.1 45.8s-4.1 37.3-4.1 74.6v35c0 37.3 4.3 74.6 4.3 74.6S21 298.6 34 312.6c16.5 18.4 38 17.8 47.7 19.8 34.6 3.5 147.1 4.7 147.1 4.7s90.9-.1 151.5-4.8c8.5-1 26.9-1.2 43.4-19.5 12.9-14 17.2-45.8 17.2-45.8s4.3-37.3 4.3-74.6v-35c-.2-37.6-4.5-74.9-4.5-74.9z" fill="#63d1bb" stroke="#fff" stroke-width="25" stroke-miterlimit="10"/><path d="M174.7 93.5v162.3l135.2-81.2-135.2-81.1z" fill="#fff"/></svg>
