<svg xmlns="http://www.w3.org/2000/svg" viewBox="0 0 20.294 18.849"><path d="M19.545 7.229h-3.151L12.987.415a.75.75 0 1 0-1.341.671l3.071 6.143H5.579l3.072-6.143A.75.75 0 0 0 7.31.415L3.903 7.229H.752a.75.75 0 0 0 0 1.5h.157l.855 2.991a.737.737 0 0 0-.316.595c0 .396.309.71.697.739l1.656 5.795h12.697l1.656-5.795a.745.745 0 0 0 .698-.739.738.738 0 0 0-.316-.596l.854-2.991h.157a.75.75 0 1 0-.002-1.499zM15.364 17.35H4.931l-1.224-4.284h12.881l-1.224 4.284zm1.653-5.785H3.278l-.81-2.836h15.359l-.81 2.836z"/></svg>
