<?xml version="1.0" encoding="utf-8"?>
<!-- Generator: Adobe Illustrator 21.1.0, SVG Export Plug-In . SVG Version: 6.00 Build 0)  -->
<svg version="1.1" id="Layer_1" xmlns="http://www.w3.org/2000/svg" xmlns:xlink="http://www.w3.org/1999/xlink" x="0px" y="0px"
	 viewBox="226.0007324 226.1899109 59.9995079 59.6196976"
	 style="enable-background:new 226.0007324 226.1899109 59.9995079 59.6196976;" xml:space="preserve">
<style type="text/css">
	.st0{fill:#231F20;}
</style>
<path class="st0" d="M226.001236,269.8711243l27.4384918,15.9335938v-23.3457336l-27.4384918-15.9399872V269.8711243z
	 M277.3469238,238.6269989v2.4531097c0,1.8168945-3.4580078,3.289505-7.7304993,3.289505
	c-4.2655945,0-7.726593-1.4726105-7.726593-3.289505v-4.0585938h0.0245056
	c0.2597046,1.7142944,3.6034851,3.0726929,7.7020874,3.0726929c4.2724915,0,7.7294922-1.4740906,7.7294922-3.2845917
	c0-1.8194122-3.4570007-3.28862-7.7294922-3.28862c-0.3388977,0-0.6748047,0.0102081-1.0018921,0.0298157l-4.9747009-2.8881989
	v3.0858917c0,1.8169098-3.4541016,3.2896118-7.7225952,3.2896118c-2.6826019,0-5.0449066-0.5825043-6.4326019-1.4673004
	c-0.1963043-0.2031097-0.4394989-0.4009094-0.7323914-0.585907c-0.3628082-0.3813934-0.5650024-0.7969055-0.5650024-1.2364044
	v-2.9862976l-4.8071136,2.7915039c-0.3466949-0.0166016-0.6962891-0.0327148-1.0536957-0.0327148
	c-4.2666016,0-7.7270966,1.4692078-7.7270966,3.28862c0,1.8105011,3.460495,3.2845917,7.7270966,3.2845917
	c4.0991058,0,7.4458008-1.3583984,7.7046051-3.0726929h0.0218964v4.0585938c0,1.8168945-3.4550018,3.289505-7.7265015,3.289505
	c-4.2666016,0-7.7270966-1.4726105-7.7270966-3.289505v-2.4203949l-5.9515991,3.4515991l27.531189,15.9864044l27.3506165-15.8824005
	L277.3469238,238.6269989z M263.7033386,248.7935028c0,1.8169098-3.4598999,3.2866058-7.7265015,3.2866058
	c-4.2686005,0-7.7290039-1.469696-7.7290039-3.2866058v-4.0590973h0.0238953
	c0.2597961,1.714798,3.6029968,3.0756989,7.7051086,3.0756989c4.1004944,0,7.4432983-1.3609009,7.7049866-3.0756989h0.0215149
	V248.7935028L263.7033386,248.7935028z M258.5578308,262.6659851v23.1436157l27.4424133-15.9384766v-23.1436157
	L258.5578308,262.6659851z M255.9167328,232.762207c4.2689972,0,7.7230988-1.469696,7.7230988-3.2855988
	c0-1.8144989-3.4541016-3.2866974-7.7230988-3.2866974c-4.2695007,0-7.7294922,1.4721985-7.7294922,3.2866974
	C248.1872406,231.292511,251.6472321,232.762207,255.9167328,232.762207"/>
</svg>
