<svg xmlns="http://www.w3.org/2000/svg" viewBox="0 0 60 59.62"><path d="M0 43.681L27.44 59.615V36.269L.001 20.329v23.352zm51.346-31.244v2.453c0 1.817-3.458 3.29-7.73 3.29-4.266 0-7.727-1.473-7.727-3.29v-4.058h.025c.26 1.714 3.603 3.072 7.702 3.072 4.272 0 7.73-1.474 7.73-3.284 0-1.82-3.458-3.289-7.73-3.289-.34 0-.675.01-1.002.03l-4.975-2.888v3.086c0 1.816-3.454 3.29-7.722 3.29-2.683 0-5.045-.583-6.433-1.468a3.94 3.94 0 0 0-.732-.586c-.363-.381-.565-.797-.565-1.236V4.572l-4.808 2.792a21.888 21.888 0 0 0-1.053-.033c-4.267 0-7.727 1.47-7.727 3.289 0 1.81 3.46 3.284 7.727 3.284 4.099 0 7.445-1.358 7.704-3.072h.022v4.058c0 1.817-3.455 3.29-7.726 3.29-4.267 0-7.727-1.473-7.727-3.29v-2.42L2.647 15.92l27.531 15.987 27.35-15.883-6.182-3.588zM37.703 22.604c0 1.816-3.46 3.286-7.727 3.286-4.268 0-7.729-1.47-7.729-3.286v-4.06h.024c.26 1.715 3.603 3.076 7.705 3.076 4.1 0 7.443-1.36 7.705-3.076h.022v4.06zm-5.146 13.872V59.62L60 43.68V20.538L32.557 36.476zM29.916 6.572c4.269 0 7.723-1.47 7.723-3.285C37.64 1.472 34.185 0 29.916 0c-4.27 0-7.73 1.472-7.73 3.287 0 1.816 3.46 3.285 7.73 3.285" fill="#149080"/></svg>
