<svg xmlns="http://www.w3.org/2000/svg" viewBox="0 0 1150 34"><path d="M1121.3 0c-14.4 0-14.4 14-28.8 14s-14.4-14-28.7-14-14.4 14-28.7 14c-14.4 0-14.4-14-28.8-14s-14.4 14-28.7 14-14.5-14-28.8-14-14.4 14-28.8 14-14.4-14-28.7-14-14.4 14-28.8 14-14.4-14-28.7-14c-14.4 0-14.4 14-28.7 14-14.4 0-14.4-14-28.8-14s-14.4 14-28.7 14c-14.4 0-14.4-14-28.7-14S704.4 14 690 14c-14.4 0-14.4-14-28.7-14-14.4 0-14.4 14-28.7 14-14.4 0-14.4-14-28.8-14S589.4 14 575 14 560.7 0 546.3 0s-14.4 14-28.7 14-14.4-14-28.8-14-14.4 14-28.8 14-14.4-14-28.8-14-14.4 14-28.8 14-14.2-14-28.6-14c-14.4 0-14.4 14-28.8 14S330.6 0 316.2 0s-14.4 14-28.8 14S273 0 258.6 0s-14.4 14-28.7 14c-14.4 0-14.4-14-28.8-14s-14.4 14-28.8 14-14.4-14-28.8-14-14.1 14-28.5 14S100.7 0 86.3 0C71.9 0 71.9 14 57.5 14S43.1 0 28.8 0 14.4 14 0 14v20h1150V14c-14.4 0-14.4-14-28.7-14z" fill="#fff"/></svg>
