<svg width="1254" height="34" xmlns="http://www.w3.org/2000/svg"><path d="M1222.652 0c-15.675 0-15.675 14-31.35 14s-15.673-14-31.347-14c-15.673 0-15.674 14-31.347 14-15.675 0-15.675-14-31.35-14-15.674 0-15.674 14-31.348 14s-15.674-14-31.35-14c-15.674 0-15.673 14-31.35 14-15.675 0-15.673-14-31.347-14-15.674 0-15.674 14-31.35 14-15.676 0-15.674-14-31.35-14-15.67 0-15.67 14-31.341 14-15.675 0-15.675-14-31.35-14-15.673 0-15.673 14-31.345 14-15.674 0-15.674-14-31.346-14-15.673 0-15.673 14-31.347 14-15.67 0-15.67-14-31.344-14-15.674 0-15.674 14-31.347 14-15.675 0-15.675-14-31.35-14s-15.675 14-31.35 14C611.37 14 611.37 0 595.697 0c-15.674 0-15.674 14-31.348 14S548.674 0 533 0c-15.675 0-15.675 14-31.35 14-15.676 0-15.676-14-31.353-14-15.675 0-15.675 14-31.35 14S423.272 0 407.596 0c-15.675 0-15.675 14-31.35 14-15.676 0-15.676-14-31.352-14-15.677 0-15.675 14-31.35 14-15.678 0-15.678-14-31.355-14-15.673 0-15.673 14-31.346 14-15.675 0-15.675-14-31.35-14s-15.675 14-31.35 14c-15.68 0-15.68-14-31.357-14s-15.677 14-31.355 14c-15.679 0-15.679-14-31.357-14-15.677 0-15.677 14-31.355 14-15.68 0-15.68-14-31.36-14S15.68 14 0 14v20h1254V14c-15.674 0-15.674-14-31.348-14z" fill="#FFF" fill-rule="nonzero"/></svg>
